<svg width="24" height="25" viewBox="0 0 24 25" fill="none" xmlns="http://www.w3.org/2000/svg">
<path d="M9.08725 20.7218C11.2909 21.1914 13.8655 21.1861 16.8759 20.2186C15.6539 20.8437 13.9497 21.4103 11.8188 21.4103C9.74624 21.4103 7.89504 20.7274 6.41623 19.8797C7.23249 20.2197 8.12157 20.516 9.08725 20.7218Z" fill="#FF9900" stroke="#FFEECA" stroke-width="1.28856"/>
<path fill-rule="evenodd" clip-rule="evenodd" d="M13.7984 10.6683C13.7984 11.6843 13.8241 12.5316 13.3106 13.4338C12.8961 14.1674 12.2396 14.6186 11.506 14.6186C10.5047 14.6186 9.92148 13.8556 9.92148 12.7296C9.92148 10.5069 11.9131 10.1035 13.7984 10.1035V10.6683ZM16.4282 17.0247C16.2558 17.1787 16.0064 17.1898 15.8121 17.087C14.9465 16.3682 14.7924 16.0344 14.3156 15.3485C12.8851 16.8083 11.8728 17.2447 10.0169 17.2447C7.8235 17.2447 6.11426 15.8913 6.11426 13.1808C6.11426 11.0645 7.26236 9.62296 8.89445 8.91879C10.3103 8.29518 12.2873 8.18516 13.7984 8.01283V7.67536C13.7984 7.05546 13.8461 6.32191 13.483 5.78644C13.1638 5.30594 12.555 5.10786 12.0195 5.10786C11.0255 5.10786 10.1379 5.61767 9.92148 6.674C9.87741 6.9088 9.70508 7.13989 9.47035 7.15087L6.9395 6.8795C6.72681 6.83172 6.49209 6.65939 6.55077 6.33289C7.13394 3.26664 9.90307 2.34229 12.3825 2.34229C13.6516 2.34229 15.3094 2.67976 16.3108 3.64076C17.5799 4.82544 17.4588 6.40626 17.4588 8.12648V12.1905C17.4588 13.4119 17.965 13.9473 18.4418 14.6076C18.6105 14.8423 18.6472 15.1248 18.4344 15.3008C17.9026 15.7446 16.9563 16.5699 16.4355 17.0321L16.4282 17.0247" fill="white"/>
<path d="M19.2693 18.5693C11.1332 22.4414 6.0839 19.2018 2.85166 17.2341C2.65165 17.1101 2.3117 17.2631 2.60665 17.6018C3.68347 18.9075 7.21244 22.0546 11.8188 22.0546C16.4283 22.0546 19.1705 19.5394 19.5135 19.1006C19.8543 18.6656 19.6136 18.4256 19.2692 18.5693H19.2693ZM21.5543 17.3074C21.3358 17.0229 20.2257 16.9699 19.5271 17.0557C18.8275 17.1391 17.7772 17.5667 17.8685 17.8234C17.9154 17.9196 18.011 17.8765 18.4917 17.8332C18.9737 17.7852 20.3239 17.6148 20.6052 17.9825C20.8879 18.3529 20.1746 20.117 20.0443 20.4015C19.9184 20.686 20.0924 20.7594 20.3288 20.5699C20.562 20.3805 20.9841 19.8899 21.2674 19.1957C21.5487 18.4978 21.7204 17.5241 21.5543 17.3074Z" fill="#FF9900"/>
<path fill-rule="evenodd" clip-rule="evenodd" d="M13.7984 10.6683C13.7984 11.6843 13.8241 12.5316 13.3106 13.4338C12.8961 14.1674 12.2396 14.6186 11.506 14.6186C10.5047 14.6186 9.92148 13.8556 9.92148 12.7296C9.92148 10.5069 11.9131 10.1035 13.7984 10.1035V10.6683ZM16.4282 17.0247C16.2558 17.1787 16.0064 17.1898 15.8121 17.087C14.9465 16.3682 14.7924 16.0344 14.3156 15.3485C12.8851 16.8083 11.8728 17.2447 10.0169 17.2447C7.8235 17.2447 6.11426 15.8913 6.11426 13.1808C6.11426 11.0645 7.26236 9.62296 8.89445 8.91879C10.3103 8.29518 12.2873 8.18516 13.7984 8.01283V7.67536C13.7984 7.05546 13.8461 6.32191 13.483 5.78644C13.1638 5.30594 12.555 5.10786 12.0195 5.10786C11.0255 5.10786 10.1379 5.61767 9.92148 6.674C9.87741 6.9088 9.70508 7.13989 9.47035 7.15087L6.9395 6.8795C6.72681 6.83172 6.49209 6.65939 6.55077 6.33289C7.13394 3.26664 9.90307 2.34229 12.3825 2.34229C13.6516 2.34229 15.3094 2.67976 16.3108 3.64076C17.5799 4.82544 17.4588 6.40626 17.4588 8.12648V12.1905C17.4588 13.4119 17.965 13.9473 18.4418 14.6076C18.6105 14.8423 18.6472 15.1248 18.4344 15.3008C17.9026 15.7446 16.9563 16.5699 16.4355 17.0321L16.4282 17.0247" fill="white"/>
</svg>
